# xmcd
#
# Track frame offsets:
#	150
#	15701
#	30731
#	45283
#	60197
#	76801
#	96790
#	112627
#	130167
#	156513
#	171342
#	190401
#	205772
#
# Disc length: 2978 seconds
#
# Revision: 1
# Processed by: cddbd v1.5.2PL0 Copyright (c) Steve Scherf et al.
# Submitted via: audiograbber 1.83.01
#
DISCID=990ba00d
DTITLE=Sógorok - Hegyen-völgyön lakodalom
DYEAR=1900
DGENRE=
TTITLE0=Hogysza, hogysza
TTITLE1=A csárdásom dobogós
TTITLE2=Mutasd az arcodat!
TTITLE3=Egy kicsi ház van a domb tetején
TTITLE4=Sárgul már a búzakalász
TTITLE5=Házasító egyveleg
TTITLE6=Itt a menyasszony, hol a menyasszony
TTITLE7=Búcsúzó
TTITLE8=Vonatos egyveleg
TTITLE9=Az ifjú asszony ékesség
TTITLE10=Nád a házam teteje/Márminálunk babám
TTITLE11=Szabad lennék
TTITLE12=Sógorok mix
EXTD=
EXTT0=
EXTT1=
EXTT2=
EXTT3=
EXTT4=
EXTT5=
EXTT6=
EXTT7=
EXTT8=
EXTT9=
EXTT10=
EXTT11=
EXTT12=
PLAYORDER=
